<svg width="310" height="338" viewBox="0 0 310 338" fill="none" xmlns="http://www.w3.org/2000/svg">
<path opacity="0.5" fill-rule="evenodd" clip-rule="evenodd" d="M114.107 -194.428C166.277 -185.541 201.119 -138.691 237.615 -99.9252C267.661 -68.0114 294.955 -33.5938 305.737 9.11737C316.04 49.9302 305.611 90.9908 296.167 132.016C285.755 177.249 278.815 224.366 248.22 258.98C212.866 298.979 167.129 338.453 114.107 337.996C61.1736 337.54 24.0364 288.771 -18.3561 256.682C-60.0268 225.139 -115.98 203.17 -130.736 152.664C-145.422 102.397 -106.634 54.6359 -92.0829 4.32877C-76.9215 -48.0885 -82.8857 -110.197 -43.8105 -147.863C-3.11118 -187.095 58.6838 -203.868 114.107 -194.428Z" fill="url(#paint0_linear)"/>
<defs>
<linearGradient id="paint0_linear" x1="394" y1="-124.5" x2="-104" y2="144" gradientUnits="userSpaceOnUse">
<stop stop-color="#0A112A"/>
<stop offset="0.891104" stop-color="#1A6654"/>
</linearGradient>
</defs>
</svg>
