<svg width="51" height="50" viewBox="0 0 51 50" fill="none" xmlns="http://www.w3.org/2000/svg">
<path fill-rule="evenodd" clip-rule="evenodd" d="M33.6707 3C33.9544 5.57907 32.9152 8.16771 31.3817 10.0263C29.8483 11.8817 27.3234 13.3322 24.856 13.1378C24.5244 10.6097 25.7645 7.97962 27.1896 6.33143C28.7804 4.46966 31.4551 3.08926 33.6707 3ZM41.6367 18.0218C41.1616 18.3175 36.8668 20.9906 36.9222 26.3774C36.9807 32.8034 42.3632 35.0849 42.799 35.2696C42.8146 35.2762 42.8239 35.2801 42.8263 35.2814C42.8225 35.2919 42.8147 35.3164 42.8028 35.3538C42.6438 35.8522 41.7501 38.6544 39.7754 41.5394C37.9423 44.2173 36.0455 46.8857 33.0456 46.9431C31.607 46.9695 30.6451 46.5527 29.6449 46.1192C28.5972 45.6652 27.5074 45.1929 25.7834 45.1929C23.9772 45.1929 22.8368 45.6792 21.7384 46.1478C20.7876 46.5533 19.8682 46.9455 18.5754 46.9973C15.6839 47.1025 13.4778 44.1026 11.6288 41.431C7.84785 35.9637 4.96273 25.9917 8.8425 19.2587C10.768 15.9177 14.2079 13.8009 17.9442 13.7435C19.5542 13.7146 21.114 14.334 22.479 14.876C23.5224 15.2903 24.4519 15.6594 25.2032 15.6594C25.8795 15.6594 26.7855 15.3023 27.8411 14.8862C29.5023 14.2313 31.5343 13.4302 33.6258 13.6446C35.0636 13.702 39.0868 14.2217 41.6723 17.9994C41.6654 18.004 41.6534 18.0114 41.6367 18.0218Z" fill="white"/>
</svg>
