<svg width="51" height="50" viewBox="0 0 51 50" fill="none" xmlns="http://www.w3.org/2000/svg">
<path fill-rule="evenodd" clip-rule="evenodd" d="M34.4466 3C34.7303 5.57907 33.691 8.16771 32.1576 10.0263C30.6242 11.8817 28.0993 13.3322 25.6318 13.1378C25.3003 10.6097 26.5404 7.97962 27.9654 6.33143C29.5562 4.46966 32.2309 3.08926 34.4466 3ZM42.4126 18.0218C41.9374 18.3175 37.6426 20.9906 37.6981 26.3774C37.7565 32.8034 43.1391 35.0849 43.5749 35.2696C43.5905 35.2762 43.5998 35.2801 43.6022 35.2814C43.5984 35.2919 43.5906 35.3164 43.5787 35.3538C43.4197 35.8522 42.526 38.6544 40.5513 41.5394C38.7182 44.2173 36.8214 46.8857 33.8215 46.9431C32.3828 46.9695 31.421 46.5527 30.4208 46.1192C29.373 45.6652 28.2833 45.1929 26.5593 45.1929C24.753 45.1929 23.6127 45.6792 22.5143 46.1478C21.5635 46.5533 20.644 46.9455 19.3513 46.9973C16.4598 47.1025 14.2537 44.1026 12.4047 41.431C8.62373 35.9637 5.73861 25.9917 9.61838 19.2587C11.5439 15.9177 14.9837 13.8009 18.72 13.7435C20.33 13.7146 21.8898 14.334 23.2549 14.876C24.2982 15.2903 25.2278 15.6594 25.9791 15.6594C26.6554 15.6594 27.5613 15.3023 28.617 14.8862C30.2782 14.2313 32.3102 13.4302 34.4017 13.6446C35.8395 13.702 39.8627 14.2217 42.4482 17.9994C42.4412 18.004 42.4293 18.0114 42.4126 18.0218Z" fill="#1E0D33"/>
</svg>
