<svg width="47" height="46" viewBox="0 0 47 46" fill="none" xmlns="http://www.w3.org/2000/svg">
<path fill-rule="evenodd" clip-rule="evenodd" d="M31.6647 1.58196L29.7989 5.04532C31.673 6.01618 33.1712 7.36828 34.2924 9.10458C35.4135 10.8422 35.9744 12.7407 35.9744 14.8032H11.6673C11.6673 12.7403 12.2281 10.8418 13.3493 9.10458C14.4704 7.36828 15.9773 6.01618 17.8693 5.04532L16.0034 1.58196C15.8804 1.35267 15.924 1.1774 16.1345 1.05321C16.3619 0.947076 16.537 1.00062 16.66 1.21145L18.5519 4.7025C20.2161 3.96196 21.9769 3.5909 23.8341 3.5909C25.6908 3.5909 27.4515 3.96188 29.1163 4.7025L31.0082 1.21145C31.1306 1.00062 31.3057 0.946598 31.5336 1.05321C31.7436 1.17684 31.7872 1.35267 31.6647 1.58196ZM18.2887 10.3876C18.5689 10.3876 18.8099 10.2863 19.0116 10.0828C19.2125 9.88028 19.3135 9.63826 19.3141 9.3559C19.3141 9.07403 19.2129 8.83249 19.0116 8.62897C18.8099 8.42642 18.5689 8.32514 18.2887 8.32514C18.0086 8.32514 17.7719 8.42642 17.5793 8.62897C17.3867 8.83201 17.2904 9.07403 17.2904 9.3559C17.2904 9.63874 17.3867 9.88028 17.5793 10.0828C17.7719 10.2863 18.008 10.3876 18.2887 10.3876ZM29.3784 10.3876C29.6581 10.3876 29.8947 10.2863 30.0877 10.0828C30.2804 9.88028 30.3767 9.63826 30.3767 9.3559C30.3767 9.07403 30.2805 8.83249 30.0877 8.62897C29.8947 8.42642 29.6586 8.32514 29.3784 8.32514C29.0977 8.32514 28.8568 8.42642 28.6554 8.62897C28.4537 8.83201 28.353 9.07403 28.353 9.3559C28.353 9.63874 28.4537 9.88028 28.6554 10.0828C28.8568 10.2863 29.0977 10.3876 29.3784 10.3876ZM6.12179 16.0454C6.64727 15.5166 7.28652 15.2523 8.03995 15.2523C8.7759 15.2523 9.40685 15.5166 9.9324 16.0454C10.458 16.5741 10.7207 17.2085 10.7207 17.9491V29.3192C10.7207 30.0783 10.4618 30.7211 9.94553 31.2498C9.4282 31.7786 8.79282 32.043 8.03995 32.043C7.28652 32.043 6.64727 31.7786 6.12179 31.2498C5.59623 30.721 5.3335 30.0783 5.3335 29.3192V17.9491C5.3335 17.2086 5.59631 16.5741 6.12179 16.0454ZM11.7716 33.3649C11.7716 34.1766 12.0517 34.8636 12.6121 35.4275C13.1729 35.9913 13.8557 36.2732 14.6618 36.2732H16.6065L16.6332 42.2762C16.6332 43.0343 16.8959 43.678 17.4214 44.2068C17.9469 44.7356 18.5779 45 19.3134 45C20.0663 45 20.706 44.7356 21.2315 44.2068C21.7571 43.678 22.0198 43.0343 22.0198 42.2762V36.2737H25.6461V42.2762C25.6461 43.0343 25.9088 43.678 26.4343 44.2068C26.9599 44.7356 27.599 45 28.3525 45C29.1055 45 29.7451 44.7356 30.2707 44.2068C30.7962 43.678 31.0589 43.0343 31.0589 42.2762V36.2737H33.0298C33.8181 36.2737 34.4921 35.9918 35.0535 35.4279C35.6137 34.8641 35.894 34.177 35.894 33.3655V15.7542H11.7716V33.3649ZM37.735 16.0323C38.2606 15.5127 38.891 15.2523 39.6271 15.2523C40.38 15.2523 41.0197 15.5127 41.5452 16.0323C42.0708 16.5527 42.3334 17.192 42.3334 17.9491V29.3192C42.3334 30.0783 42.0708 30.721 41.5452 31.2498C41.0197 31.7786 40.38 32.043 39.6271 32.043C38.8915 32.043 38.2606 31.7786 37.735 31.2498C37.2095 30.721 36.9468 30.0783 36.9468 29.3192V17.9491C36.9468 17.1921 37.2095 16.5527 37.735 16.0323Z" fill="#1E0D33"/>
</svg>
