<svg width="310" height="535" viewBox="0 0 310 535" fill="none" xmlns="http://www.w3.org/2000/svg">
<path fill-rule="evenodd" clip-rule="evenodd" d="M248.107 2.57238C300.277 11.459 335.119 58.3093 371.615 97.0748C401.661 128.989 428.955 163.406 439.737 206.117C450.04 246.93 439.611 287.991 430.167 329.016C419.755 374.249 412.815 421.366 382.22 455.98C346.866 495.979 301.129 535.453 248.107 534.996C195.174 534.54 158.036 485.771 115.644 453.682C73.9732 422.139 18.02 400.17 3.2642 349.664C-11.4216 299.397 27.3662 251.636 41.9171 201.329C57.0785 148.911 51.1143 86.8034 90.1895 49.1369C130.889 9.90493 192.684 -6.86842 248.107 2.57238Z" fill="url(#paint0_linear)"/>
<defs>
<linearGradient id="paint0_linear" x1="528" y1="72.5" x2="30" y2="341" gradientUnits="userSpaceOnUse">
<stop stop-color="#592699"/>
<stop offset="0.891104" stop-color="#0A112A"/>
</linearGradient>
</defs>
</svg>
