<svg width="45" height="44" viewBox="0 0 45 44" fill="none" xmlns="http://www.w3.org/2000/svg">
<path d="M12.3335 0C5.7185 0 0.333496 5.385 0.333496 12V32C0.333496 38.615 5.7185 44 12.3335 44H32.3335C38.9485 44 44.3335 38.615 44.3335 32V12C44.3335 5.385 38.9485 0 32.3335 0H12.3335ZM12.3335 2H32.3335C37.8685 2 42.3335 6.465 42.3335 12V32C42.3335 37.535 37.8685 42 32.3335 42H12.3335C6.7985 42 2.3335 37.535 2.3335 32V12C2.3335 6.465 6.7985 2 12.3335 2ZM8.9485 15.066C8.2455 15.066 7.7285 15.568 7.7285 16.226C7.7285 16.876 8.2455 17.377 8.9485 17.377C9.6515 17.377 10.1715 16.877 10.1715 16.227C10.1715 15.567 9.6515 15.067 8.9485 15.067V15.066ZM19.3705 15.636C15.7315 15.636 13.4465 18.186 13.4465 22.281C13.4465 26.368 15.6875 28.934 19.3705 28.934C23.0445 28.934 25.2765 26.359 25.2765 22.281C25.2765 18.194 23.0265 15.638 19.3705 15.637V15.636ZM32.3005 15.636C29.5325 15.636 27.6855 17.139 27.6855 19.398C27.6855 21.261 28.7305 22.37 31.0255 22.906L32.6595 23.303C34.3395 23.698 35.0775 24.277 35.0775 25.244C35.0775 26.369 33.9175 27.186 32.3355 27.186C30.6405 27.186 29.4625 26.422 29.2945 25.219H27.3415C27.4815 27.487 29.3715 28.936 32.1835 28.936C35.1895 28.936 37.0695 27.416 37.0695 24.99C37.0695 23.083 35.9975 22.028 33.3965 21.422L31.9995 21.078C30.3475 20.691 29.6795 20.173 29.6795 19.268C29.6795 18.125 30.7165 17.378 32.2725 17.378C33.7495 17.378 34.7675 18.106 34.9525 19.275H36.8685C36.7545 17.139 34.8755 15.637 32.3005 15.637V15.636ZM19.3705 17.473C21.7805 17.473 23.2655 19.337 23.2655 22.281C23.2655 25.207 21.7785 27.098 19.3705 27.098C16.9365 27.098 15.4605 25.208 15.4605 22.281C15.4605 19.337 16.9805 17.474 19.3705 17.473ZM8.0095 19.057V28.627H9.8895V19.057H8.0095Z" fill="#1E0D33"/>
</svg>
